normalP12_grf.mot
version=1
nRows=22
nColumns=19
inDegrees=yes
endheader
time	1_ground_force_vx	1_ground_force_vy	1_ground_force_vz	1_ground_force_px	1_ground_force_py	1_ground_force_pz	1_ground_torque_x	1_ground_torque_y	1_ground_torque_z	2_ground_force_vx	2_ground_force_vy	2_ground_force_vz	2_ground_force_px	2_ground_force_py	2_ground_force_pz	2_ground_torque_x	2_ground_torque_y	2_ground_torque_z
            2.080000	            0.127614	            0.414070	            0.347026	            0.462204	            0.001946	           -0.193988	           -0.045840	            0.039702	            0.023926	          -54.725300	          664.582557	           37.417528	            1.027387	            0.000840	           -0.356786	            0.049734	           -0.603966	           -0.034005
            2.081000	            0.082072	            0.495488	            0.331989	            0.462204	            0.001946	           -0.193988	           -0.062996	            0.036877	           -0.079914	          -54.164289	          664.900647	           37.432917	            1.027392	            0.000840	           -0.356835	            0.050600	           -0.621147	           -0.034970
            2.082000	            0.119000	            0.175067	            0.315678	            0.462204	            0.001946	           -0.193988	           -0.029111	            0.027023	           -0.038125	          -53.610488	          665.298428	           37.633344	            1.027285	            0.000840	           -0.356903	            0.047360	           -0.587727	           -0.033245
            2.083000	            0.143291	            0.493976	            0.354869	            0.462204	            0.001946	           -0.193988	           -0.062587	            0.030880	           -0.079719	          -52.988045	          665.616238	           37.717872	            1.027227	            0.000841	           -0.356953	            0.046981	           -0.590161	           -0.033442
            2.084000	            0.118393	            0.016310	            0.330572	            0.462204	            0.001946	           -0.193988	            0.004140	            0.031759	           -0.079582	          -52.247034	          666.891987	           38.028999	            1.026988	            0.000841	           -0.356861	            0.040681	           -0.519262	           -0.029610
            2.085000	            0.120085	            0.413851	            0.339405	            0.462204	            0.001946	           -0.193988	            0.021135	            0.034151	            0.023952	          -51.711781	          666.329893	           38.302387	            1.027307	            0.000841	           -0.357129	            0.038931	           -0.501643	           -0.028836
            2.086000	            0.097359	            0.493961	            0.324285	            0.462204	            0.001946	           -0.193988	            0.071270	            0.030218	           -0.038266	          -50.926407	          667.126042	           38.596247	            1.027219	            0.000842	           -0.357161	            0.033793	           -0.442686	           -0.025611
            2.087000	            0.134014	            0.095237	            0.323120	            0.462204	            0.001946	           -0.193988	            0.021152	            0.029747	           -0.100200	          -50.503402	          667.443489	           38.665712	            1.027347	            0.000841	           -0.357112	            0.032973	           -0.435769	           -0.025245
            2.088000	            0.135366	            0.414434	            0.354686	            0.462204	            0.001946	           -0.193988	           -0.112869	            0.034056	           -0.017573	          -49.881375	          667.600569	           38.888248	            1.027252	            0.000841	           -0.357093	            0.029125	           -0.389798	           -0.022706
            2.089000	            0.137054	            0.814091	            0.309922	            0.462204	            0.001946	           -0.193988	            0.003922	            0.031291	           -0.080066	          -49.250316	          668.078103	           39.296312	            1.027161	            0.000842	           -0.357323	            0.025808	           -0.350085	           -0.020592
            2.090000	            0.112159	            0.334057	            0.339182	            0.462204	            0.001946	           -0.193988	           -0.029043	            0.029483	            0.044707	          -48.896010	          668.557012	           39.174235	            1.027138	            0.000842	           -0.357294	            0.028094	           -0.384127	           -0.022508
            2.091000	            0.111489	            0.175888	            0.323433	            0.462204	            0.001946	           -0.193988	            0.037611	            0.033661	           -0.121084	          -48.461551	          669.913369	           39.378536	            1.026920	            0.000842	           -0.357058	            0.025296	           -0.349679	           -0.020555
            2.092000	            0.096237	            0.175575	            0.338778	            0.462204	            0.001946	           -0.193988	           -0.062658	            0.034738	           -0.079599	          -47.984000	          670.389331	           39.732784	            1.027140	            0.000841	           -0.357039	            0.021475	           -0.300031	           -0.017782
            2.093000	            0.120799	            0.573729	            0.355199	            0.462204	            0.001946	           -0.193988	            0.054456	            0.034906	           -0.017624	          -47.671129	          669.990079	           39.561759	            1.027245	            0.000842	           -0.357275	            0.022963	           -0.322736	           -0.019057
            2.094000	            0.112256	            0.334163	            0.323910	            0.462204	            0.001946	           -0.193988	            0.004376	            0.027662	            0.044687	          -47.294873	          670.068707	           39.676472	            1.027139	            0.000842	           -0.357286	            0.023798	           -0.337169	           -0.019965
            2.095000	            0.087586	           -0.063144	            0.345742	            0.462204	            0.001946	           -0.193988	            0.087821	            0.034036	           -0.183111	          -46.954333	          670.947113	           39.717591	            1.027134	            0.000842	           -0.357323	            0.023185	           -0.331300	           -0.019612
            2.096000	            0.104920	            0.414646	            0.324189	            0.462204	            0.001946	           -0.193988	            0.020989	            0.037466	           -0.058988	          -46.531340	          671.265596	           39.733325	            1.027077	            0.000843	           -0.357321	            0.024277	           -0.350218	           -0.020730
            2.097000	            0.109306	           -0.383962	            0.352462	            0.462204	            0.001946	           -0.193988	            0.088183	            0.027264	            0.065827	          -46.123869	          671.502376	           39.879391	            1.027249	            0.000842	           -0.357212	            0.022291	           -0.324528	           -0.019273
            2.098000	            0.105676	            0.574003	            0.347627	            0.462204	            0.001946	           -0.193988	            0.020883	            0.032799	            0.023753	          -45.754025	          671.981823	           39.918883	            1.027101	            0.000843	           -0.357335	            0.022885	           -0.336104	           -0.019966
            2.099000	            0.114230	            0.814242	            0.348294	            0.462204	            0.001946	           -0.193988	           -0.062920	            0.037733	           -0.162898	          -45.331482	          672.138718	           40.049366	            1.027318	            0.000842	           -0.357263	            0.021073	           -0.312452	           -0.018617
            2.100000	            0.126664	            0.096016	            0.346167	            0.462204	            0.001946	           -0.193988	           -0.046038	            0.019992	           -0.141781	          -44.902433	          671.978480	           40.139978	            1.027410	            0.000842	           -0.357586	            0.022003	           -0.329277	           -0.019669
            2.101000	            0.120914	            0.574363	            0.317010	            0.462204	            0.001946	           -0.193988	           -0.012658	            0.040115	            0.023717	          -44.293752	          672.694368	           40.410733	            1.027182	            0.000842	           -0.357354	            0.018064	           -0.274333	           -0.016480
